<svg xmlns="http://www.w3.org/2000/svg" viewBox="0 0 1200 630" font-family="-apple-system,Segoe UI,Roboto,Helvetica,Arial,'PingFang SC','Microsoft YaHei',sans-serif">
  <defs>
    <linearGradient id="bg" x1="0" y1="0" x2="1" y2="1"><stop offset="0" stop-color="#08171a"/><stop offset="1" stop-color="#10302c"/></linearGradient>
    <radialGradient id="glow" cx="0.82" cy="0.18" r="0.9"><stop offset="0" stop-color="#36d1a0" stop-opacity="0.42"/><stop offset="1" stop-color="#36d1a0" stop-opacity="0"/></radialGradient>
  </defs>
  <rect width="1200" height="630" fill="url(#bg)"/>
  <rect width="1200" height="630" fill="url(#glow)"/>
  <g stroke="#ffffff" stroke-opacity="0.05"><path d="M0 158 H1200 M0 316 H1200 M0 474 H1200 M300 0 V630 M600 0 V630 M900 0 V630"/></g>
  <g transform="translate(80,84)">
    <rect rx="21" width="250" height="42" fill="#36d1a0" fill-opacity="0.16" stroke="#36d1a0" stroke-opacity="0.5"/>
    <circle cx="28" cy="21" r="8" fill="#36d1a0"/>
    <text x="48" y="28" fill="#c9f6e7" font-size="19" font-weight="700">使用教程 · 独享 IP</text>
  </g>
  <text x="80" y="278" fill="#ffffff" font-size="70" font-weight="800">AI 工具连不上？</text>
  <text x="80" y="360" fill="#cdeee2" font-size="46" font-weight="700">独享 IP 让连接更稳</text>
  <text x="80" y="438" fill="#8fc7b6" font-size="26">出口只服务你，告别频繁验证与访问受限</text>
  <g transform="translate(80,486)">
    <rect rx="22" width="335" height="44" fill="#4f8cff" fill-opacity="0.16" stroke="#4f8cff" stroke-opacity="0.55"/>
    <text x="24" y="29" fill="#cfe0ff" font-size="20" font-weight="700">🎁 每日 200M 免费 · 邀请送 $1</text>
  </g>
  <g transform="translate(960,300)" fill="none" stroke-width="2">
    <path d="M0 -78 C44 -78 78 -44 78 0 C78 44 44 78 0 78 C-44 78 -78 44 -78 0 C-78 -44 -44 -78 0 -78 Z" stroke="#36d1a0" stroke-opacity="0.7"/>
    <circle r="120" stroke="#36d1a0" stroke-opacity="0.25"/>
    <g stroke="none" fill="#36d1a0"><circle r="13"/></g>
    <path d="M-18 -2 L-6 10 L18 -16" stroke="#0c1428" stroke-width="6" stroke-linecap="round" stroke-linejoin="round"/>
    <circle cx="96" cy="-60" r="9" fill="#4f8cff" stroke="none"/><circle cx="-96" cy="60" r="9" fill="#9fb3d6" stroke="none"/>
  </g>
</svg>
