<svg xmlns="http://www.w3.org/2000/svg" viewBox="0 0 1200 630" font-family="-apple-system,Segoe UI,Roboto,Helvetica,Arial,'PingFang SC','Microsoft YaHei',sans-serif">
  <defs>
    <linearGradient id="bg" x1="0" y1="0" x2="1" y2="1"><stop offset="0" stop-color="#0c1428"/><stop offset="1" stop-color="#152544"/></linearGradient>
    <radialGradient id="glow" cx="0.82" cy="0.18" r="0.9"><stop offset="0" stop-color="#4f8cff" stop-opacity="0.4"/><stop offset="1" stop-color="#4f8cff" stop-opacity="0"/></radialGradient>
    <linearGradient id="acc" x1="0" y1="0" x2="1" y2="0"><stop offset="0" stop-color="#4f8cff"/><stop offset="1" stop-color="#36d1a0"/></linearGradient>
  </defs>
  <rect width="1200" height="630" fill="url(#bg)"/>
  <rect width="1200" height="630" fill="url(#glow)"/>
  <g stroke="#ffffff" stroke-opacity="0.045">
    <path d="M0 158 H1200 M0 316 H1200 M0 474 H1200 M300 0 V630 M600 0 V630 M900 0 V630"/>
  </g>
  <g transform="translate(80,84)">
    <rect rx="21" width="290" height="42" fill="#4f8cff" fill-opacity="0.14" stroke="#4f8cff" stroke-opacity="0.5"/>
    <circle cx="28" cy="21" r="8" fill="#36d1a0"/>
    <text x="48" y="28" fill="#dce6ff" font-size="19" font-weight="700">AI 加速器 · 全球加速</text>
  </g>
  <text x="80" y="290" fill="#ffffff" font-size="78" font-weight="800">TonBo VPN</text>
  <text x="80" y="372" fill="#cdd9f2" font-size="40" font-weight="700">不止 AI VPN，全球皆可触达</text>
  <text x="80" y="452" fill="#8ea4ca" font-size="27">一键稳定连上 GPT / Claude / Sora / Midjourney</text>
  <g transform="translate(80,500)">
    <rect rx="22" width="335" height="44" fill="#36d1a0" fill-opacity="0.14" stroke="#36d1a0" stroke-opacity="0.55"/>
    <text x="24" y="29" fill="#bff3e2" font-size="20" font-weight="700">🎁 每日 200M 免费 · 邀请送 $1</text>
  </g>
  <g transform="translate(940,315)" fill="none">
    <circle r="120" stroke="url(#acc)" stroke-width="2" stroke-opacity="0.5"/>
    <circle r="78" stroke="#4f8cff" stroke-width="2" stroke-opacity="0.4"/>
    <circle cx="0" cy="-120" r="11" fill="#4f8cff"/><circle cx="104" cy="60" r="11" fill="#36d1a0"/><circle cx="-104" cy="60" r="11" fill="#9fb3d6"/>
    <circle r="16" fill="#0c1428" stroke="url(#acc)" stroke-width="3"/>
  </g>
</svg>
