<svg xmlns="http://www.w3.org/2000/svg" viewBox="0 0 1200 630" font-family="-apple-system,Segoe UI,Roboto,Helvetica,Arial,'PingFang SC','Microsoft YaHei',sans-serif">
  <defs>
    <linearGradient id="bg" x1="0" y1="0" x2="1" y2="1"><stop offset="0" stop-color="#160e1c"/><stop offset="1" stop-color="#2a1630"/></linearGradient>
    <radialGradient id="glow" cx="0.82" cy="0.18" r="0.9"><stop offset="0" stop-color="#ff7a59" stop-opacity="0.45"/><stop offset="1" stop-color="#ff7a59" stop-opacity="0"/></radialGradient>
  </defs>
  <rect width="1200" height="630" fill="url(#bg)"/>
  <rect width="1200" height="630" fill="url(#glow)"/>
  <g stroke="#ffffff" stroke-opacity="0.05"><path d="M0 158 H1200 M0 316 H1200 M0 474 H1200 M300 0 V630 M600 0 V630 M900 0 V630"/></g>
  <g transform="translate(80,84)">
    <rect rx="21" width="250" height="42" fill="#ff7a59" fill-opacity="0.16" stroke="#ff7a59" stroke-opacity="0.5"/>
    <circle cx="28" cy="21" r="8" fill="#ff7a59"/>
    <text x="48" y="28" fill="#ffe2d8" font-size="19" font-weight="700">使用教程 · AI 绘画</text>
  </g>
  <text x="80" y="278" fill="#ffffff" font-size="68" font-weight="800">Sora、Midjourney</text>
  <text x="80" y="352" fill="#ffd9cb" font-size="48" font-weight="800">出图总失败？</text>
  <text x="80" y="430" fill="#d6a999" font-size="26">AI 智能路由 + 原生纯净 IP，稳定上传与生成</text>
  <g transform="translate(80,478)">
    <rect rx="22" width="335" height="44" fill="#36d1a0" fill-opacity="0.16" stroke="#36d1a0" stroke-opacity="0.55"/>
    <text x="24" y="29" fill="#bff3e2" font-size="20" font-weight="700">🎁 每日 200M 免费 · 邀请送 $1</text>
  </g>
  <g transform="translate(960,300)">
    <rect x="-70" y="-70" width="140" height="140" rx="20" fill="none" stroke="#ff7a59" stroke-width="2" stroke-opacity="0.6"/>
    <circle cx="-28" cy="-22" r="16" fill="#ffb27a"/>
    <path d="M-70 40 L-18 -8 L18 28 L48 2 L70 24 L70 70 L-70 70 Z" fill="#ff7a59" fill-opacity="0.55"/>
    <circle cx="118" cy="-86" r="9" fill="#b07bff"/><circle cx="120" cy="80" r="9" fill="#36d1a0"/>
  </g>
</svg>
